<svg xmlns="http://www.w3.org/2000/svg" viewBox="0 0 125.72 46.48"><defs><style>.cls-1{fill:none;stroke:#000;stroke-linecap:round;stroke-linejoin:round;stroke-width:2px;}</style></defs><title>Element 2</title><g id="Ebene_2" data-name="Ebene 2"><g id="Ebene_1-2" data-name="Ebene 1"><path class="cls-1" d="M147.7,87.44c-2.59-1.55-5.95-.49-8.45-3-1.9-1.91-3.32-3.72-3.73-6.36-.47-3-3.56-4.44-5.85-2.39-7.77,7-17.52,8-27.16,9.26-3.36.45-6.77-.34-10.07-1.31-1.94-.56-3.64-.08-5.59.58-6.63,2.26-13.13,3-18.48-3.28-1-1.18-1.72-2.07-1.64-3.56" transform="translate(-65.72 -43)"/><path class="cls-1" d="M166.12,88.48a9.85,9.85,0,0,0,0-2.77c-2-6.56,1.89-12.07,8.73-12.18a31.32,31.32,0,0,1,12.86,2.78c.87.37,1.7,1.39,2.77.36" transform="translate(-65.72 -43)"/><path class="cls-1" d="M157.6,78.4c1.4,3.18,3.4,5.46,7.3,4.87" transform="translate(-65.72 -43)"/><path class="cls-1" d="M125.81,44c-.22,1.7.64,2.65,2,3.52,2,1.21,3.74,2.73,5.59,4.12" transform="translate(-65.72 -43)"/></g></g></svg>