<svg xmlns="http://www.w3.org/2000/svg" viewBox="0 0 118.36 58.44"><defs><style>.cls-1{fill:none;stroke:#000;stroke-linecap:round;stroke-linejoin:round;stroke-width:2px;}</style></defs><title>Element 3</title><g id="Ebene_2" data-name="Ebene 2"><g id="Ebene_1-2" data-name="Ebene 1"><path class="cls-1" d="M107.07,110.5c.05,5.38-1.38,10.78-5.73,13.6-7,4.56-14.68,2.32-18.39-5.85a65.79,65.79,0,0,1-3-7.76c-1.79-5.81-4.35-6.06-9.48-4.6-4.92,1.4-9.49,4-14.28,5.87A52.42,52.42,0,0,1,48,114.33c-3.8.81-6-1.11-6-5.12,0-6,2.4-11.4,4.68-16.83,2.45-5.83,4.71-11.74,6.87-17.68.53-1.44.35-3.14.49-4.72" transform="translate(-41.01 -68.98)"/><path class="cls-1" d="M112.67,87.22c.62,7.55,6,11.46,11.68,15,3.4,2.16,7.13,3.81,10.75,5.63.63.32,1.73.69,2.09.39,2.25-1.82,3.12.27,4.36,1.36" transform="translate(-41.01 -68.98)"/><path class="cls-1" d="M158.36,102.31a22.38,22.38,0,0,0-2.17-2.56c-1.36-1.2-2.73-1.89-4.32,0-3.29,3.81-6.73,7.5-10.1,11.23" transform="translate(-41.01 -68.98)"/></g></g></svg>