<svg xmlns="http://www.w3.org/2000/svg" viewBox="0 0 100.33 38.15"><defs><style>.cls-1{fill:none;stroke:#000;stroke-linecap:round;stroke-linejoin:round;stroke-width:2px;}</style></defs><title>Element 6</title><g id="Ebene_2" data-name="Ebene 2"><g id="Ebene_1-2" data-name="Ebene 1"><path class="cls-1" d="M126.64,63.39c-1.49,3.93-3,7.85-4.46,11.79a2.58,2.58,0,0,0-.22,1.63c1.56,3.84.07,7.73.33,11.57a67.17,67.17,0,0,0,.63,6.83c.23,1.31.8,2.73,2.54,2.83a3.38,3.38,0,0,0,3.37-1.83c1.41-2.17,3.64-3.77,4.24-6.52.1-.45,1-.72,1.59-1.07" transform="translate(-57.73 -62.39)"/><path class="cls-1" d="M135.37,83a23.21,23.21,0,0,1,0,2.36c-.57,5.11.58,9.62,5,12.69,2.46,1.72,5.37,1.77,8.23,1.19a51,51,0,0,0,5.89-1.65,16.29,16.29,0,0,0,2.6-1.39" transform="translate(-57.73 -62.39)"/><path class="cls-1" d="M121.69,76.59c-1.57,2.2-3.28,4.32-4.69,6.62-2.46,4-4.67,8.2-7.14,12.22-.87,1.43-2.2,2.47-4,1" transform="translate(-57.73 -62.39)"/><path class="cls-1" d="M75.24,82.72c-1.42,1-2.89,2-4.23,3.09-1.71,1.42-3.17,3.19-5,4.37a5.38,5.38,0,0,1-3.93.46,3.39,3.39,0,0,1-2.41-3.44c0-.89.56-2.09-.92-2.47" transform="translate(-57.73 -62.39)"/><path class="cls-1" d="M90.09,92.86c.71,2.26,3.52,5.44,7.08,5.18a50.14,50.14,0,0,0,6.36-.74c2.53-.52,3.52-2.47,3.54-6.32" transform="translate(-57.73 -62.39)"/><path class="cls-1" d="M76.65,80.37a4.55,4.55,0,0,0-.83,3.79c.33,1.7-.48,3.59-.53,5.4A6.38,6.38,0,0,0,76,92.83c1.38,2.38,3.26,2.29,5.63.06A12.8,12.8,0,0,1,84,91.45" transform="translate(-57.73 -62.39)"/><path class="cls-1" d="M84.55,89.8a8.44,8.44,0,0,0-.1,1.41c.21,3.1,1.19,3.8,4.23,3.07.46-.11.94-.16,1.41-.24" transform="translate(-57.73 -62.39)"/></g></g></svg>