<svg xmlns="http://www.w3.org/2000/svg" viewBox="0 0 61.42 57.93"><defs><style>.cls-1{fill:none;stroke:#000;stroke-linecap:round;stroke-linejoin:round;stroke-width:2px;}</style></defs><title>Element 8</title><g id="Ebene_2" data-name="Ebene 2"><g id="Ebene_1-2" data-name="Ebene 1"><path class="cls-1" d="M72.89,71.58a7.49,7.49,0,0,1-.16-4.77A65.58,65.58,0,0,0,74,50.45a12.9,12.9,0,0,0-5-9.69,3.62,3.62,0,0,0-4-.17c-3.77,2.39-6.11,6-7.88,9.89a36.07,36.07,0,0,0-2.23,7.77c-.26,1.3.28,2.74.23,4.12a15.42,15.42,0,0,0,1,6.35,15.71,15.71,0,0,0,3.84,6.17c2.15,1.88,4.7,1.79,7.28,1,.13,0,.22-.29.32-.29,2.41,0,3.38-2.08,5-3.29a11,11,0,0,1,4.27-1.87c.61-.13,1.56.75,2.18,1.35,1.49,1.46,3.41,1.55,5.27,1.89l4.6.79" transform="translate(-44.65 -39.08)"/><path class="cls-1" d="M63.2,76.67a2.13,2.13,0,0,1-1.89,2.43,23.18,23.18,0,0,0-13.84,9.64,11.77,11.77,0,0,1-1,1.42,2.76,2.76,0,0,0-.59,3.17A4.17,4.17,0,0,0,49.54,96a8.72,8.72,0,0,0,3.17-.62c6.29-2.45,11.45-6.26,15-12.18A39.55,39.55,0,0,0,70,77.76a6.39,6.39,0,0,0-.1-2.52" transform="translate(-44.65 -39.08)"/><path class="cls-1" d="M88.78,74.76c.43-.16.89-.52,1.27-.45a20.56,20.56,0,0,1,10.5,5.37,18.1,18.1,0,0,1,4.52,6.52" transform="translate(-44.65 -39.08)"/></g></g></svg>