<svg xmlns="http://www.w3.org/2000/svg" viewBox="0 0 94.31 42.22"><defs><style>.cls-1{fill:none;stroke:#000;stroke-linecap:round;stroke-linejoin:round;stroke-width:2px;}</style></defs><title>Element 10</title><g id="Ebene_2" data-name="Ebene 2"><g id="Ebene_1-2" data-name="Ebene 1"><path class="cls-1" d="M104,90.87c-4.66,1.69-9.78,2-14,4.93-1.5,1-3.5,1.34-5.27,2a4.34,4.34,0,0,0-.8.33c-3.21,2-8.32-.06-9.8-2.92a43,43,0,0,1-3-6.72,11.25,11.25,0,0,1-.52-4.84,5.44,5.44,0,0,0-1-4.35" transform="translate(-59.54 -67.83)"/><path class="cls-1" d="M71,73.82c-.38,1.5-.73,3-1.15,4.5a1.63,1.63,0,0,1-.63.8,8.47,8.47,0,0,0-3.42,4.33c-.86,2.39-2.27,4.57-3.12,7a41.83,41.83,0,0,0-1.47,6.42c-.22,1.13-.43,2.33-.53,3.38-.21,2.52-.25,5.22,1.18,7.53.36.58,1.15.88,1.74,1.31" transform="translate(-59.54 -67.83)"/><path class="cls-1" d="M152.85,84.11c-.59-.08-1.3,0-1.75-.27-4.37-2.82-8.65-2.11-12.88.29-.93.53-2.17.82-2.26,2.24" transform="translate(-59.54 -67.83)"/><path class="cls-1" d="M99.76,68.83a17.31,17.31,0,0,1,4.7,5.3c.18.36.72.55,1.09.81" transform="translate(-59.54 -67.83)"/></g></g></svg>